<svg width="90" height="90" viewBox="0 0 90 90" fill="none" xmlns="http://www.w3.org/2000/svg">
  <circle cx="59" cy="59" r="28" fill="#14B8A6"/>
  <path fill-rule="evenodd" clip-rule="evenodd" d="M57.8564 47.3418C57.3282 46.8863 56.6641 46.6376 55.979 46.6376C55.2938 46.6376 54.6297 46.8863 54.1016 47.3418L45.4511 54.7986C44.923 55.2541 44.2588 55.5029 43.5737 55.5029C42.8885 55.5029 42.2244 55.2541 41.6963 54.7986L39.8984 53.3042C39.3702 52.8487 38.7061 52.6 38.021 52.6C37.3358 52.6 36.6717 52.8487 36.1436 53.3042C35.6154 53.7598 35.3333 54.3645 35.3333 54.9877C35.3333 55.611 35.6154 56.2157 36.1436 56.6713L41.6967 61.4293C42.2248 61.8848 42.889 62.1336 43.5741 62.1336C44.2593 62.1336 44.9234 61.8848 45.4515 61.4293L58.8997 49.7158C59.4279 49.2603 59.71 48.6555 59.71 48.0323C59.71 47.409 59.4279 46.8043 58.8997 46.3488L57.8564 47.3418ZM57.8564 47.3418L58.8997 46.3488L57.8564 47.3418Z" fill="#001128"/>
  <path fill-rule="evenodd" clip-rule="evenodd" d="M63.8553 52.3411C64.3834 51.8856 65.0475 51.6368 65.7327 51.6368C66.4178 51.6368 67.0819 51.8856 67.6101 52.3411L76.2606 59.7979C76.7887 60.2534 77.4528 60.5022 78.138 60.5022C78.8231 60.5022 79.4872 60.2534 80.0153 59.7979L81.8132 58.3035C82.3414 57.848 83.0055 57.5992 83.6907 57.5992C84.3758 57.5992 85.0399 57.848 85.568 58.3035C86.0962 58.7591 86.3784 59.3638 86.3784 59.987C86.3784 60.6103 86.0962 61.215 85.568 61.6706L80.015 66.4285C79.4868 66.8841 78.8227 67.1328 78.1376 67.1328C77.4524 67.1328 76.7883 66.8841 76.2601 66.4285L62.812 54.715C62.2838 54.2595 62.0017 53.6548 62.0017 53.0316C62.0017 52.4083 62.2838 51.8036 62.812 51.3481L63.8553 52.3411ZM63.8553 52.3411L62.812 51.3481L63.8553 52.3411Z" fill="#001128"/>
  <path fill-rule="evenodd" clip-rule="evenodd" d="M50.8578 60.3387C51.3859 59.8832 52.05 59.6344 52.7352 59.6344C53.4204 59.6344 54.0845 59.8832 54.6126 60.3387L55.6559 61.2968C56.184 61.7524 56.8482 62.0011 57.5333 62.0011C58.2184 62.0011 58.8825 61.7524 59.4107 61.2968L68.0612 53.84C68.5894 53.3845 69.2535 53.1358 69.9386 53.1358C70.6238 53.1358 71.2879 53.3845 71.816 53.84L72.8593 54.7981C73.3874 55.2536 74.0516 55.5023 74.7367 55.5023C75.4218 55.5023 76.0859 55.2536 76.6141 54.7981C77.1422 54.3425 77.4244 53.7378 77.4244 53.1146C77.4244 52.4913 77.1422 51.8866 76.6141 51.4311L71.0609 46.6731C70.5328 46.2176 69.8687 45.9688 69.1835 45.9688C68.4984 45.9688 67.8343 46.2176 67.3061 46.6731L50.8578 60.3387Z" fill="white"/>
  <path d="M59 59C71.5 59 73.5 71 73.5 75C73.5 79 71.5 87 59 87C46.5 87 44.5 79 44.5 75C44.5 71 46.5 59 59 59Z" fill="#14B8A6"/>
  <path d="M59 59C71.5 59 73.5 71 73.5 75H44.5C44.5 71 46.5 59 59 59Z" fill="white"/>
  <path d="M44.5 75C44.5 79 46.5 87 59 87C71.5 87 73.5 79 73.5 75L44.5 75Z" fill="#001128"/>
  <circle cx="59" cy="59" r="28" stroke="#14B8A6" stroke-width="2"/>
  <path d="M74.7426 43.2574C83.0642 51.579 83.0642 65.2513 74.7426 73.5729C66.4211 81.8945 52.7487 81.8945 44.4271 73.5729C36.1056 65.2513 36.1056 51.579 44.4271 43.2574C52.7487 35.9359 66.421 35.9359 74.7426 43.2574" stroke="white" stroke-width="2"/>
</svg>